<mxfile host="Electron" modified="2024-02-19T06:59:31.444Z" agent="Mozilla/5.0 (Windows NT 10.0; Win64; x64) AppleWebKit/537.36 (KHTML, like Gecko) draw.io/23.1.5 Chrome/120.0.6099.109 Electron/28.1.0 Safari/537.36" etag="9fiiDmLXY1XahdMklw5v" version="23.1.5" type="device" pages="2">
  <diagram name="Page-1" id="SAT09AQedHx2DTcEVwEg">
    <mxGraphModel dx="2463" dy="776" grid="1" gridSize="10" guides="1" tooltips="1" connect="1" arrows="1" fold="1" page="1" pageScale="1" pageWidth="850" pageHeight="1100" math="0" shadow="0">
      <root>
        <mxCell id="0" />
        <mxCell id="1" parent="0" />
        <mxCell id="8xbXLZUuFNOAypwYK14I-20" value="" style="group" vertex="1" connectable="0" parent="1">
          <mxGeometry x="-714" y="390" width="578" height="243.5" as="geometry" />
        </mxCell>
        <mxCell id="8xbXLZUuFNOAypwYK14I-3" value="Software Development" style="rounded=1;whiteSpace=wrap;html=1;" vertex="1" parent="8xbXLZUuFNOAypwYK14I-20">
          <mxGeometry x="210" y="168.5" width="80" height="75" as="geometry" />
        </mxCell>
        <mxCell id="8xbXLZUuFNOAypwYK14I-5" value="" style="endArrow=none;html=1;rounded=0;exitX=0;exitY=0.25;exitDx=0;exitDy=0;entryX=1;entryY=0.25;entryDx=0;entryDy=0;" edge="1" parent="8xbXLZUuFNOAypwYK14I-20" source="8xbXLZUuFNOAypwYK14I-3" target="8xbXLZUuFNOAypwYK14I-3">
          <mxGeometry width="50" height="50" relative="1" as="geometry">
            <mxPoint x="590" y="277.5" as="sourcePoint" />
            <mxPoint x="640" y="227.5" as="targetPoint" />
          </mxGeometry>
        </mxCell>
        <mxCell id="8xbXLZUuFNOAypwYK14I-8" value="Consultation" style="rounded=1;whiteSpace=wrap;html=1;" vertex="1" parent="8xbXLZUuFNOAypwYK14I-20">
          <mxGeometry x="478" width="80" height="75" as="geometry" />
        </mxCell>
        <mxCell id="8xbXLZUuFNOAypwYK14I-9" value="" style="endArrow=none;html=1;rounded=0;exitX=0;exitY=0.25;exitDx=0;exitDy=0;entryX=1;entryY=0.25;entryDx=0;entryDy=0;" edge="1" parent="8xbXLZUuFNOAypwYK14I-20" source="8xbXLZUuFNOAypwYK14I-8" target="8xbXLZUuFNOAypwYK14I-8">
          <mxGeometry width="50" height="50" relative="1" as="geometry">
            <mxPoint x="590" y="77.5" as="sourcePoint" />
            <mxPoint x="640" y="27.5" as="targetPoint" />
          </mxGeometry>
        </mxCell>
        <mxCell id="8xbXLZUuFNOAypwYK14I-10" value="Client" style="rounded=0;whiteSpace=wrap;html=1;" vertex="1" parent="8xbXLZUuFNOAypwYK14I-20">
          <mxGeometry y="7.5" width="120" height="60" as="geometry" />
        </mxCell>
        <mxCell id="8xbXLZUuFNOAypwYK14I-11" value="Development Team" style="rounded=0;whiteSpace=wrap;html=1;" vertex="1" parent="8xbXLZUuFNOAypwYK14I-20">
          <mxGeometry x="458" y="176" width="120" height="60" as="geometry" />
        </mxCell>
        <mxCell id="8xbXLZUuFNOAypwYK14I-12" value="Requirement Analysis" style="endArrow=classic;html=1;rounded=0;entryX=0;entryY=0.5;entryDx=0;entryDy=0;exitX=1;exitY=0.5;exitDx=0;exitDy=0;" edge="1" parent="8xbXLZUuFNOAypwYK14I-20" source="8xbXLZUuFNOAypwYK14I-10" target="8xbXLZUuFNOAypwYK14I-8">
          <mxGeometry width="50" height="50" relative="1" as="geometry">
            <mxPoint x="-230" y="247.5" as="sourcePoint" />
            <mxPoint x="-180" y="197.5" as="targetPoint" />
          </mxGeometry>
        </mxCell>
        <mxCell id="8xbXLZUuFNOAypwYK14I-15" value="Software solution" style="endArrow=classic;html=1;rounded=0;exitX=0;exitY=0.5;exitDx=0;exitDy=0;" edge="1" parent="8xbXLZUuFNOAypwYK14I-20" source="8xbXLZUuFNOAypwYK14I-3">
          <mxGeometry x="-0.4667" width="50" height="50" relative="1" as="geometry">
            <mxPoint x="50" y="247.5" as="sourcePoint" />
            <mxPoint x="50" y="67.5" as="targetPoint" />
            <Array as="points">
              <mxPoint x="50" y="207.5" />
            </Array>
            <mxPoint as="offset" />
          </mxGeometry>
        </mxCell>
        <mxCell id="8xbXLZUuFNOAypwYK14I-18" value="Requirements" style="endArrow=classic;html=1;rounded=0;exitX=0.5;exitY=1;exitDx=0;exitDy=0;entryX=0.5;entryY=0;entryDx=0;entryDy=0;" edge="1" parent="8xbXLZUuFNOAypwYK14I-20" source="8xbXLZUuFNOAypwYK14I-8" target="8xbXLZUuFNOAypwYK14I-11">
          <mxGeometry width="50" height="50" relative="1" as="geometry">
            <mxPoint x="30" y="287.5" as="sourcePoint" />
            <mxPoint x="480" y="167.5" as="targetPoint" />
          </mxGeometry>
        </mxCell>
        <mxCell id="8xbXLZUuFNOAypwYK14I-19" value="Fullfillment of requirements" style="endArrow=classic;html=1;rounded=0;entryX=1;entryY=0.5;entryDx=0;entryDy=0;exitX=0;exitY=0.5;exitDx=0;exitDy=0;" edge="1" parent="8xbXLZUuFNOAypwYK14I-20" source="8xbXLZUuFNOAypwYK14I-11" target="8xbXLZUuFNOAypwYK14I-3">
          <mxGeometry width="50" height="50" relative="1" as="geometry">
            <mxPoint x="310" y="217.5" as="sourcePoint" />
            <mxPoint x="360" y="167.5" as="targetPoint" />
          </mxGeometry>
        </mxCell>
      </root>
    </mxGraphModel>
  </diagram>
  <diagram id="0RWo41T_lPl4egjaMNvL" name="Page-2">
    <mxGraphModel dx="3430" dy="1242" grid="1" gridSize="10" guides="1" tooltips="1" connect="1" arrows="1" fold="1" page="1" pageScale="1" pageWidth="850" pageHeight="1100" math="0" shadow="0">
      <root>
        <mxCell id="0" />
        <mxCell id="1" parent="0" />
        <mxCell id="iZdQmH6A9rDvvdRcnWF5-12" value="" style="group" vertex="1" connectable="0" parent="1">
          <mxGeometry x="-340" y="160" width="80" height="75" as="geometry" />
        </mxCell>
        <mxCell id="iZdQmH6A9rDvvdRcnWF5-1" value="Requirement Analysis" style="rounded=1;whiteSpace=wrap;html=1;" vertex="1" parent="iZdQmH6A9rDvvdRcnWF5-12">
          <mxGeometry width="80" height="75" as="geometry" />
        </mxCell>
        <mxCell id="iZdQmH6A9rDvvdRcnWF5-2" value="" style="endArrow=none;html=1;rounded=0;exitX=0;exitY=0.25;exitDx=0;exitDy=0;entryX=1;entryY=0.25;entryDx=0;entryDy=0;" edge="1" parent="iZdQmH6A9rDvvdRcnWF5-12" source="iZdQmH6A9rDvvdRcnWF5-1" target="iZdQmH6A9rDvvdRcnWF5-1">
          <mxGeometry width="50" height="50" relative="1" as="geometry">
            <mxPoint x="112" y="77.5" as="sourcePoint" />
            <mxPoint x="162" y="27.5" as="targetPoint" />
          </mxGeometry>
        </mxCell>
        <mxCell id="kQcFFS9GHcSlKX2REbzZ-4" value="1.0" style="text;html=1;align=center;verticalAlign=middle;whiteSpace=wrap;rounded=0;" vertex="1" parent="iZdQmH6A9rDvvdRcnWF5-12">
          <mxGeometry x="10" y="-6" width="60" height="30" as="geometry" />
        </mxCell>
        <mxCell id="HHAmMbJMK7dXXOOhMyj2-1" value="Client" style="rounded=0;whiteSpace=wrap;html=1;" vertex="1" parent="1">
          <mxGeometry x="-760" y="170" width="120" height="60" as="geometry" />
        </mxCell>
        <mxCell id="HHAmMbJMK7dXXOOhMyj2-2" value="Developer&lt;br&gt;(Development Team)" style="rounded=0;whiteSpace=wrap;html=1;" vertex="1" parent="1">
          <mxGeometry x="-360" y="340" width="120" height="60" as="geometry" />
        </mxCell>
        <mxCell id="HHAmMbJMK7dXXOOhMyj2-3" value="" style="group" vertex="1" connectable="0" parent="1">
          <mxGeometry x="-329" y="530" width="80" height="75" as="geometry" />
        </mxCell>
        <mxCell id="iZdQmH6A9rDvvdRcnWF5-6" value="Design and Coding" style="rounded=1;whiteSpace=wrap;html=1;" vertex="1" parent="HHAmMbJMK7dXXOOhMyj2-3">
          <mxGeometry width="80" height="75" as="geometry" />
        </mxCell>
        <mxCell id="iZdQmH6A9rDvvdRcnWF5-7" value="" style="endArrow=none;html=1;rounded=0;exitX=0;exitY=0.25;exitDx=0;exitDy=0;entryX=1;entryY=0.25;entryDx=0;entryDy=0;" edge="1" parent="HHAmMbJMK7dXXOOhMyj2-3" source="iZdQmH6A9rDvvdRcnWF5-6" target="iZdQmH6A9rDvvdRcnWF5-6">
          <mxGeometry width="50" height="50" relative="1" as="geometry">
            <mxPoint x="112" y="77.5" as="sourcePoint" />
            <mxPoint x="162" y="27.5" as="targetPoint" />
          </mxGeometry>
        </mxCell>
        <mxCell id="kQcFFS9GHcSlKX2REbzZ-3" value="1.0" style="text;html=1;align=center;verticalAlign=middle;whiteSpace=wrap;rounded=0;" vertex="1" parent="HHAmMbJMK7dXXOOhMyj2-3">
          <mxGeometry x="10" y="-8" width="60" height="30" as="geometry" />
        </mxCell>
        <mxCell id="HHAmMbJMK7dXXOOhMyj2-4" value="" style="group" vertex="1" connectable="0" parent="1">
          <mxGeometry x="-530" y="672.5" width="80" height="75" as="geometry" />
        </mxCell>
        <mxCell id="iZdQmH6A9rDvvdRcnWF5-8" value="&lt;br&gt;Testing and Quality Assurance" style="rounded=1;whiteSpace=wrap;html=1;" vertex="1" parent="HHAmMbJMK7dXXOOhMyj2-4">
          <mxGeometry width="80" height="75" as="geometry" />
        </mxCell>
        <mxCell id="iZdQmH6A9rDvvdRcnWF5-9" value="" style="endArrow=none;html=1;rounded=0;exitX=0;exitY=0.25;exitDx=0;exitDy=0;entryX=1;entryY=0.25;entryDx=0;entryDy=0;" edge="1" parent="HHAmMbJMK7dXXOOhMyj2-4" source="iZdQmH6A9rDvvdRcnWF5-8" target="iZdQmH6A9rDvvdRcnWF5-8">
          <mxGeometry width="50" height="50" relative="1" as="geometry">
            <mxPoint x="112" y="77.5" as="sourcePoint" />
            <mxPoint x="162" y="27.5" as="targetPoint" />
          </mxGeometry>
        </mxCell>
        <mxCell id="kQcFFS9GHcSlKX2REbzZ-2" value="1.0" style="text;html=1;align=center;verticalAlign=middle;whiteSpace=wrap;rounded=0;" vertex="1" parent="HHAmMbJMK7dXXOOhMyj2-4">
          <mxGeometry x="10" y="-2.5" width="60" height="30" as="geometry" />
        </mxCell>
        <mxCell id="HHAmMbJMK7dXXOOhMyj2-5" value="" style="group" vertex="1" connectable="0" parent="1">
          <mxGeometry x="-750" y="515" width="80" height="75" as="geometry" />
        </mxCell>
        <mxCell id="iZdQmH6A9rDvvdRcnWF5-4" value="Deployment" style="rounded=1;whiteSpace=wrap;html=1;" vertex="1" parent="HHAmMbJMK7dXXOOhMyj2-5">
          <mxGeometry width="80" height="75" as="geometry" />
        </mxCell>
        <mxCell id="iZdQmH6A9rDvvdRcnWF5-5" value="" style="endArrow=none;html=1;rounded=0;exitX=0;exitY=0.25;exitDx=0;exitDy=0;entryX=1;entryY=0.25;entryDx=0;entryDy=0;" edge="1" parent="HHAmMbJMK7dXXOOhMyj2-5" source="iZdQmH6A9rDvvdRcnWF5-4" target="iZdQmH6A9rDvvdRcnWF5-4">
          <mxGeometry width="50" height="50" relative="1" as="geometry">
            <mxPoint x="112" y="77.5" as="sourcePoint" />
            <mxPoint x="162" y="27.5" as="targetPoint" />
          </mxGeometry>
        </mxCell>
        <mxCell id="kQcFFS9GHcSlKX2REbzZ-1" value="1.0" style="text;html=1;align=center;verticalAlign=middle;whiteSpace=wrap;rounded=0;" vertex="1" parent="HHAmMbJMK7dXXOOhMyj2-5">
          <mxGeometry x="10" y="-5" width="60" height="30" as="geometry" />
        </mxCell>
        <mxCell id="HHAmMbJMK7dXXOOhMyj2-6" value="Specifies Requirements" style="endArrow=classic;html=1;rounded=0;exitX=1;exitY=0.5;exitDx=0;exitDy=0;" edge="1" parent="1" source="HHAmMbJMK7dXXOOhMyj2-1">
          <mxGeometry width="50" height="50" relative="1" as="geometry">
            <mxPoint x="-360" y="410" as="sourcePoint" />
            <mxPoint x="-340" y="200" as="targetPoint" />
          </mxGeometry>
        </mxCell>
        <mxCell id="HHAmMbJMK7dXXOOhMyj2-7" value="Analyze Requirement" style="endArrow=classic;html=1;rounded=0;entryX=0.5;entryY=0;entryDx=0;entryDy=0;exitX=0.5;exitY=1;exitDx=0;exitDy=0;" edge="1" parent="1" source="iZdQmH6A9rDvvdRcnWF5-1" target="HHAmMbJMK7dXXOOhMyj2-2">
          <mxGeometry width="50" height="50" relative="1" as="geometry">
            <mxPoint x="-300" y="240" as="sourcePoint" />
            <mxPoint x="-250" y="320" as="targetPoint" />
          </mxGeometry>
        </mxCell>
        <mxCell id="HHAmMbJMK7dXXOOhMyj2-8" value="Performs" style="endArrow=classic;html=1;rounded=0;exitX=0.575;exitY=0.992;exitDx=0;exitDy=0;exitPerimeter=0;" edge="1" parent="1" source="HHAmMbJMK7dXXOOhMyj2-2">
          <mxGeometry width="50" height="50" relative="1" as="geometry">
            <mxPoint x="-330" y="440" as="sourcePoint" />
            <mxPoint x="-290" y="530" as="targetPoint" />
            <Array as="points">
              <mxPoint x="-290" y="530" />
            </Array>
          </mxGeometry>
        </mxCell>
        <mxCell id="HHAmMbJMK7dXXOOhMyj2-9" value="QA(Development Team)" style="rounded=0;whiteSpace=wrap;html=1;" vertex="1" parent="1">
          <mxGeometry x="-340" y="680" width="120" height="60" as="geometry" />
        </mxCell>
        <mxCell id="HHAmMbJMK7dXXOOhMyj2-10" value="Prototype" style="endArrow=classic;html=1;rounded=0;exitX=0.5;exitY=1;exitDx=0;exitDy=0;entryX=0.421;entryY=0.002;entryDx=0;entryDy=0;entryPerimeter=0;" edge="1" parent="1" source="iZdQmH6A9rDvvdRcnWF5-6" target="HHAmMbJMK7dXXOOhMyj2-9">
          <mxGeometry width="50" height="50" relative="1" as="geometry">
            <mxPoint x="-490" y="440" as="sourcePoint" />
            <mxPoint x="-580" y="480" as="targetPoint" />
          </mxGeometry>
        </mxCell>
        <mxCell id="HHAmMbJMK7dXXOOhMyj2-12" value="Performs" style="endArrow=classic;html=1;rounded=0;exitX=0;exitY=0.5;exitDx=0;exitDy=0;entryX=1;entryY=0.5;entryDx=0;entryDy=0;" edge="1" parent="1" source="HHAmMbJMK7dXXOOhMyj2-9" target="iZdQmH6A9rDvvdRcnWF5-8">
          <mxGeometry width="50" height="50" relative="1" as="geometry">
            <mxPoint x="-620" y="530" as="sourcePoint" />
            <mxPoint x="-570" y="480" as="targetPoint" />
          </mxGeometry>
        </mxCell>
        <mxCell id="HHAmMbJMK7dXXOOhMyj2-13" value="Project Manager&lt;br&gt;(Development Team)" style="rounded=0;whiteSpace=wrap;html=1;" vertex="1" parent="1">
          <mxGeometry x="-770" y="680" width="120" height="60" as="geometry" />
        </mxCell>
        <mxCell id="HHAmMbJMK7dXXOOhMyj2-14" value="Verifies" style="endArrow=classic;html=1;rounded=0;entryX=1;entryY=0.5;entryDx=0;entryDy=0;exitX=0;exitY=0.5;exitDx=0;exitDy=0;" edge="1" parent="1" source="iZdQmH6A9rDvvdRcnWF5-8" target="HHAmMbJMK7dXXOOhMyj2-13">
          <mxGeometry width="50" height="50" relative="1" as="geometry">
            <mxPoint x="-400" y="600" as="sourcePoint" />
            <mxPoint x="-350" y="550" as="targetPoint" />
          </mxGeometry>
        </mxCell>
        <mxCell id="HHAmMbJMK7dXXOOhMyj2-15" value="Processes" style="endArrow=classic;html=1;rounded=0;exitX=0.5;exitY=0;exitDx=0;exitDy=0;" edge="1" parent="1" source="HHAmMbJMK7dXXOOhMyj2-13">
          <mxGeometry width="50" height="50" relative="1" as="geometry">
            <mxPoint x="-400" y="600" as="sourcePoint" />
            <mxPoint x="-710" y="590" as="targetPoint" />
          </mxGeometry>
        </mxCell>
        <mxCell id="HHAmMbJMK7dXXOOhMyj2-16" value="Software solution" style="endArrow=classic;html=1;rounded=0;exitX=0.5;exitY=0;exitDx=0;exitDy=0;entryX=0.416;entryY=1.016;entryDx=0;entryDy=0;entryPerimeter=0;" edge="1" parent="1" source="iZdQmH6A9rDvvdRcnWF5-4" target="HHAmMbJMK7dXXOOhMyj2-1">
          <mxGeometry width="50" height="50" relative="1" as="geometry">
            <mxPoint x="-420" y="450" as="sourcePoint" />
            <mxPoint x="-370" y="400" as="targetPoint" />
          </mxGeometry>
        </mxCell>
      </root>
    </mxGraphModel>
  </diagram>
</mxfile>
